<svg xmlns="http://www.w3.org/2000/svg" viewBox="0 0 732 100" width="732" height="100">
	<style>
		tspan { white-space:pre }
	</style>
	<path id="Cécilie Rivière " fill="#ffffff" d="M66.76 69.6Q66.76 73.31 64.9 77.95Q63.16 82.59 59.34 86.76Q55.51 90.94 49.36 93.84Q43.21 96.62 34.51 96.62Q28.25 96.62 22.1 93.96Q15.95 91.17 11.08 85.37Q6.21 79.46 3.19 70.29Q0.29 61.01 0.29 48.02Q0.29 37.46 3.08 28.3Q5.98 19.14 10.85 12.41Q15.72 5.56 22.22 1.74Q28.71 -2.21 36.02 -2.21Q40.78 -2.21 44.49 -0.58Q48.2 0.92 50.87 3.24Q53.54 5.56 55.16 8.35Q56.9 11.13 57.83 13.57Q57.6 9.97 57.48 8Q57.36 6.03 57.25 5.1Q57.25 4.06 57.25 3.82Q57.25 3.59 57.25 3.59Q57.25 2.2 58.06 0.92Q58.99 -0.47 61.08 -0.47Q62.47 -0.47 63.28 0Q64.21 0.46 64.56 1.04Q65.02 1.62 65.14 2.32Q65.25 3.01 65.25 3.36Q65.25 7.42 65.02 12.41Q64.79 17.28 64.79 21.46Q64.79 25.17 64.9 29.11Q65.02 33.06 65.02 36.77Q65.02 37.81 64.32 39.32Q63.63 40.71 61.08 40.71Q58.99 40.71 57.94 39.44Q56.9 38.16 56.9 33.87Q56.9 28.18 55.74 22.96Q54.7 17.63 52.14 13.68Q49.71 9.62 45.76 7.3Q41.82 4.87 36.14 4.87Q30.1 4.87 25.12 8.46Q20.13 12.06 16.53 18.09Q12.94 24.12 10.96 32.01Q8.99 39.78 8.99 48.14Q8.99 56.6 10.62 64.14Q12.24 71.68 15.49 77.37Q18.85 82.94 23.84 86.18Q28.83 89.43 35.44 89.43Q40.54 89.43 44.72 88.04Q48.9 86.65 51.91 84.21Q55.04 81.78 57.02 78.53Q58.99 75.28 59.68 71.45Q60.15 69.13 60.73 67.62Q61.31 66.12 63.4 66.12Q66.76 66.12 66.76 69.6ZM110.96 21.57Q110.96 22.85 108.98 25.4Q107.01 27.84 104.34 30.27Q101.79 32.71 99.12 34.56Q96.57 36.42 95.3 36.42Q94.37 36.42 93.32 35.96Q92.4 35.49 92.4 34.33Q92.4 34.1 92.98 32.71Q93.67 31.32 94.72 29.46Q95.76 27.49 97.15 25.4Q98.54 23.2 99.94 21.46Q101.44 19.6 102.72 18.44Q104.11 17.16 105.27 17.16Q107.94 17.16 109.45 18.44Q110.96 19.6 110.96 21.57ZM83.81 60.32L113.16 59.85Q115.13 59.85 115.13 58.92Q115.13 57.18 114.2 55.1Q113.28 52.89 111.42 51.15Q109.68 49.3 106.9 48.14Q104.11 46.86 100.4 46.86Q96.8 46.86 93.9 48.14Q91 49.3 88.92 51.27Q86.83 53.12 85.55 55.56Q84.28 57.88 83.81 60.32ZM83.35 67.28Q83.23 67.86 83.12 68.55Q83.12 69.13 83.12 69.71Q83.12 73.19 84.28 76.67Q85.44 80.15 87.64 82.94Q89.96 85.72 93.21 87.46Q96.57 89.08 100.86 89.08Q105.39 89.08 108.52 87.69Q111.65 86.3 113.51 84.21Q115.48 82.01 116.29 79.57Q117.22 77.02 117.22 74.93Q117.22 74 117.92 72.61Q118.73 71.22 121.16 71.22Q122.56 71.22 123.6 72.26Q124.64 73.19 124.64 74.93Q124.64 78.99 123.37 82.94Q122.21 86.76 119.31 89.78Q116.41 92.8 111.42 94.65Q106.43 96.51 99.01 96.51Q92.98 96.51 88.34 94.54Q83.81 92.45 80.68 88.74Q77.55 85.02 75.92 80.04Q74.42 74.93 74.42 68.78Q74.42 62.06 76.27 56.6Q78.13 51.15 81.61 47.44Q85.09 43.73 89.96 41.76Q94.83 39.67 100.75 39.67Q107.13 39.67 111.54 41.99Q115.94 44.19 118.61 47.44Q121.28 50.57 122.44 54.05Q123.6 57.42 123.6 59.74Q123.6 62.4 122.32 64.72Q121.05 67.04 118.73 67.04Q115.13 67.04 110.14 67.16Q105.27 67.16 99.7 67.16Q98.54 67.16 96.34 67.16Q94.14 67.16 91.7 67.28Q89.26 67.28 86.94 67.28Q84.74 67.28 83.35 67.28ZM172.2 45.35Q172.09 44.08 171.97 42.34Q171.97 40.6 171.97 38.97Q171.97 37.7 172.78 36.77Q173.6 35.72 175.57 35.72Q177.54 35.72 178.47 36.77Q179.4 37.81 179.4 39.55Q179.4 41.18 179.4 43.84Q179.4 46.51 179.28 49.41Q179.28 52.2 179.28 54.86Q179.28 57.53 179.28 59.04Q179.28 59.97 178 60.78Q176.84 61.59 175.1 61.59Q174.18 61.59 173.02 61.01Q171.97 60.43 171.97 59.16Q171.97 53.12 168.84 49.64Q165.71 46.05 157.94 46.05Q154.11 46.05 150.74 47.79Q147.5 49.41 145.18 52.43Q142.86 55.44 141.46 59.62Q140.19 63.68 140.19 68.67Q140.19 77.83 144.48 83.17Q148.89 88.5 156.78 88.5Q163.5 88.5 168.03 86.07Q172.55 83.63 174.64 80.15Q175.8 78.3 176.73 77.72Q177.77 77.14 178.58 77.14Q179.86 77.14 180.9 77.83Q182.06 78.53 182.06 80.15Q182.06 81.08 181.72 81.78Q181.48 82.36 180.9 83.28Q172.78 95.7 157.24 95.7Q151.09 95.7 146.22 93.61Q141.46 91.52 138.1 87.92Q134.85 84.21 133 79.34Q131.26 74.47 131.26 68.9Q131.26 62.64 133.23 57.18Q135.32 51.73 138.91 47.79Q142.51 43.73 147.5 41.41Q152.48 39.09 158.28 39.09Q162.69 39.09 166.17 40.36Q169.65 41.52 172.2 45.35ZM207.35 48.48L207.35 88.27L213.96 88.27Q216.52 88.27 218.02 88.85Q219.53 89.43 219.53 91.75Q219.53 93.26 218.49 94.19Q217.44 95 216.05 95L195.29 95Q193.9 95 192.39 95Q191 94.88 189.84 94.65Q188.79 94.3 187.98 93.72Q187.28 93.03 187.28 91.87Q187.28 90.82 187.75 90.24Q188.21 89.66 189.14 89.43Q190.07 89.08 191.23 88.97Q192.5 88.74 194.13 88.5Q196.68 88.16 197.61 87.81Q198.54 87.34 198.77 86.07Q199.12 82.36 199.12 78.06Q199.23 73.66 199.23 70.29Q199.23 65.88 199.12 61.82Q199 57.76 198.77 53.36Q198.65 51.96 198.3 51.15Q197.96 50.22 197.03 50.22Q196.56 50.22 195.17 50.34Q193.9 50.46 192.39 50.57Q191 50.57 189.72 50.69Q188.44 50.8 187.98 50.8Q187.05 50.8 185.89 50.22Q184.73 49.64 184.73 48.95Q184.73 47.56 185.31 46.86Q185.89 46.16 186.94 45.82Q188.1 45.47 189.6 45.35Q191.23 45.24 193.2 45Q194.71 44.89 196.45 44.77Q198.19 44.66 199.81 44.54Q201.55 44.42 202.94 44.42Q204.34 44.42 205.26 44.42Q206.66 44.42 207 45.58Q207.35 46.63 207.35 48.48ZM195.64 27.72Q195.64 26.91 195.98 25.75Q196.45 24.47 197.14 23.43Q197.96 22.38 199.23 21.69Q200.51 20.88 202.25 20.88Q204.57 20.88 206.31 22.62Q208.05 24.24 208.05 27.26Q208.05 31.43 205.73 33.06Q203.52 34.68 201.44 34.68Q199 34.68 197.26 32.71Q195.64 30.74 195.64 27.72ZM237.74 3.94Q237.74 6.84 237.63 10.09Q237.63 13.22 237.63 16Q237.63 18.67 237.63 20.53Q237.63 22.27 237.63 22.38Q237.63 48.6 237.74 64.61Q237.86 80.62 237.86 88.39L243.2 88.39Q246.79 88.39 247.84 89.55Q249 90.71 249 92.1Q249 93.03 247.95 94.07Q247.02 95.12 244.59 95.12Q243.78 95.12 242.38 95.12Q240.99 95 239.37 95Q237.86 94.88 236.12 94.88Q234.5 94.77 232.99 94.77Q231.83 94.77 230.32 94.88Q228.93 94.88 227.42 94.88Q226.03 94.88 224.64 95Q223.36 95 222.43 95Q219.65 95 218.49 94.07Q217.44 93.03 217.44 91.98Q217.44 90.24 218.37 89.66Q219.3 88.97 219.88 88.97L223.71 88.74Q228.93 88.39 229.16 85.14Q229.28 81.89 229.39 78.3Q229.51 74.7 229.62 70.18Q229.74 65.65 229.74 59.97Q229.74 54.28 229.74 47.09Q229.74 39.67 229.74 34.1Q229.74 28.42 229.62 24.01Q229.62 19.48 229.62 15.89Q229.62 12.29 229.62 8.93Q229.62 7.07 229.28 6.38Q228.93 5.68 227.42 5.68L220.23 5.68Q217.79 5.68 216.28 5.22Q214.89 4.64 214.89 3.24Q214.89 2.08 216.52 1.5Q218.26 0.81 220.69 0.46Q223.24 0.11 226.03 0Q228.81 -0.12 231.13 -0.12Q234.38 -0.12 236 0.46Q237.74 0.92 237.74 3.94ZM270.92 48.48L270.92 88.27L277.53 88.27Q280.08 88.27 281.59 88.85Q283.1 89.43 283.1 91.75Q283.1 93.26 282.06 94.19Q281.01 95 279.62 95L258.86 95Q257.46 95 255.96 95Q254.56 94.88 253.4 94.65Q252.36 94.3 251.55 93.72Q250.85 93.03 250.85 91.87Q250.85 90.82 251.32 90.24Q251.78 89.66 252.71 89.43Q253.64 89.08 254.8 88.97Q256.07 88.74 257.7 88.5Q260.25 88.16 261.18 87.81Q262.1 87.34 262.34 86.07Q262.68 82.36 262.68 78.06Q262.8 73.66 262.8 70.29Q262.8 65.88 262.68 61.82Q262.57 57.76 262.34 53.36Q262.22 51.96 261.87 51.15Q261.52 50.22 260.6 50.22Q260.13 50.22 258.74 50.34Q257.46 50.46 255.96 50.57Q254.56 50.57 253.29 50.69Q252.01 50.8 251.55 50.8Q250.62 50.8 249.46 50.22Q248.3 49.64 248.3 48.95Q248.3 47.56 248.88 46.86Q249.46 46.16 250.5 45.82Q251.66 45.47 253.17 45.35Q254.8 45.24 256.77 45Q258.28 44.89 260.02 44.77Q261.76 44.66 263.38 44.54Q265.12 44.42 266.51 44.42Q267.9 44.42 268.83 44.42Q270.22 44.42 270.57 45.58Q270.92 46.63 270.92 48.48ZM259.2 27.72Q259.2 26.91 259.55 25.75Q260.02 24.47 260.71 23.43Q261.52 22.38 262.8 21.69Q264.08 20.88 265.82 20.88Q268.14 20.88 269.88 22.62Q271.62 24.24 271.62 27.26Q271.62 31.43 269.3 33.06Q267.09 34.68 265 34.68Q262.57 34.68 260.83 32.71Q259.2 30.74 259.2 27.72ZM294.82 60.32L324.16 59.85Q326.14 59.85 326.14 58.92Q326.14 57.18 325.21 55.1Q324.28 52.89 322.42 51.15Q320.68 49.3 317.9 48.14Q315.12 46.86 311.4 46.86Q307.81 46.86 304.91 48.14Q302.01 49.3 299.92 51.27Q297.83 53.12 296.56 55.56Q295.28 57.88 294.82 60.32ZM294.35 67.28Q294.24 67.86 294.12 68.55Q294.12 69.13 294.12 69.71Q294.12 73.19 295.28 76.67Q296.44 80.15 298.64 82.94Q300.96 85.72 304.21 87.46Q307.58 89.08 311.87 89.08Q316.39 89.08 319.52 87.69Q322.66 86.3 324.51 84.21Q326.48 82.01 327.3 79.57Q328.22 77.02 328.22 74.93Q328.22 74 328.92 72.61Q329.73 71.22 332.17 71.22Q333.56 71.22 334.6 72.26Q335.65 73.19 335.65 74.93Q335.65 78.99 334.37 82.94Q333.21 86.76 330.31 89.78Q327.41 92.8 322.42 94.65Q317.44 96.51 310.01 96.51Q303.98 96.51 299.34 94.54Q294.82 92.45 291.68 88.74Q288.55 85.02 286.93 80.04Q285.42 74.93 285.42 68.78Q285.42 62.06 287.28 56.6Q289.13 51.15 292.61 47.44Q296.09 43.73 300.96 41.76Q305.84 39.67 311.75 39.67Q318.13 39.67 322.54 41.99Q326.95 44.19 329.62 47.44Q332.28 50.57 333.44 54.05Q334.6 57.42 334.6 59.74Q334.6 62.4 333.33 64.72Q332.05 67.04 329.73 67.04Q326.14 67.04 321.15 67.16Q316.28 67.16 310.71 67.16Q309.55 67.16 307.34 67.16Q305.14 67.16 302.7 67.28Q300.27 67.28 297.95 67.28Q295.74 67.28 294.35 67.28ZM426.94 26.79Q426.94 22.62 425.32 19.6Q423.69 16.47 421.14 14.26Q418.59 12.06 415.22 10.67Q411.98 9.28 408.61 8.58Q405.36 7.77 402.23 7.54Q399.22 7.19 397.01 7.19Q395.39 7.19 393.88 7.3Q392.37 7.42 391.21 7.65Q389.82 7.88 388.66 8L388.66 48.02Q388.78 48.02 389.47 48.14Q390.17 48.14 390.98 48.14Q391.91 48.14 392.6 48.25Q393.42 48.25 393.53 48.25Q398.75 48.25 404.55 47.44Q410.47 46.63 415.46 44.31Q420.44 41.87 423.69 37.7Q426.94 33.52 426.94 26.79ZM389.94 55.91L389.01 55.91Q388.78 55.91 388.66 55.79L388.66 89.08L397.94 89.08Q400.14 89.08 401.77 89.66Q403.39 90.13 403.39 92.1Q403.39 93.38 401.88 94.19Q400.49 95 395.39 95L373.7 95Q370.33 95 369.52 94.07Q368.71 93.14 368.71 91.87Q368.71 90.71 369.75 90.13Q370.91 89.43 374.74 89.43Q375.55 89.43 376.48 89.32Q377.52 89.08 378.34 88.5Q379.15 87.81 379.61 86.76Q380.19 85.6 380.19 83.75Q380.19 74.7 380.31 65.54Q380.42 56.37 380.42 47.21Q380.42 37.7 380.08 28.53Q379.73 19.25 379.73 9.74Q379.73 7.07 377.64 6.38Q375.67 5.68 372.77 5.68Q369.06 5.68 369.06 2.32Q369.06 1.04 370.1 0.58Q371.26 0.11 372.42 0.11Q377.06 0.11 380.08 0.11Q383.21 0 386.11 0Q389.12 -0.12 392.49 -0.12Q395.97 -0.24 401.19 -0.24Q406.52 -0.24 412.56 1.16Q418.59 2.55 423.69 5.68Q428.8 8.7 432.16 13.8Q435.64 18.79 435.64 26.1Q435.64 33.52 432.62 38.97Q429.61 44.31 424.62 47.9Q419.75 51.38 413.25 53.36Q406.87 55.21 399.91 55.79Q404.67 63.33 409.42 70.41Q413.48 76.56 418.36 83.05Q423.23 89.55 427.4 94.3L441.67 94.3Q444.34 94.3 445.62 94.77Q447.01 95.23 447.01 97.09Q447.01 97.9 446.2 98.48Q445.5 99.06 443.06 99.41Q440.63 99.76 435.99 99.99Q431.35 100.1 423.58 100.1Q422.53 100.1 420.44 97.9Q418.36 95.58 415.57 91.98Q412.79 88.27 409.42 83.63Q406.18 78.88 402.81 74Q399.45 69.02 396.08 64.38Q392.84 59.62 389.94 55.91ZM467.19 48.48L467.19 88.27L473.8 88.27Q476.36 88.27 477.86 88.85Q479.37 89.43 479.37 91.75Q479.37 93.26 478.33 94.19Q477.28 95 475.89 95L455.13 95Q453.74 95 452.23 95Q450.84 94.88 449.68 94.65Q448.63 94.3 447.82 93.72Q447.12 93.03 447.12 91.87Q447.12 90.82 447.59 90.24Q448.05 89.66 448.98 89.43Q449.91 89.08 451.07 88.97Q452.34 88.74 453.97 88.5Q456.52 88.16 457.45 87.81Q458.38 87.34 458.61 86.07Q458.96 82.36 458.96 78.06Q459.07 73.66 459.07 70.29Q459.07 65.88 458.96 61.82Q458.84 57.76 458.61 53.36Q458.49 51.96 458.14 51.15Q457.8 50.22 456.87 50.22Q456.4 50.22 455.01 50.34Q453.74 50.46 452.23 50.57Q450.84 50.57 449.56 50.69Q448.28 50.8 447.82 50.8Q446.89 50.8 445.73 50.22Q444.57 49.64 444.57 48.95Q444.57 47.56 445.15 46.86Q445.73 46.16 446.78 45.82Q447.94 45.47 449.44 45.35Q451.07 45.24 453.04 45Q454.55 44.89 456.29 44.77Q458.03 44.66 459.65 44.54Q461.39 44.42 462.78 44.42Q464.18 44.42 465.1 44.42Q466.5 44.42 466.84 45.58Q467.19 46.63 467.19 48.48ZM455.48 27.72Q455.48 26.91 455.82 25.75Q456.29 24.47 456.98 23.43Q457.8 22.38 459.07 21.69Q460.35 20.88 462.09 20.88Q464.41 20.88 466.15 22.62Q467.89 24.24 467.89 27.26Q467.89 31.43 465.57 33.06Q463.36 34.68 461.28 34.68Q458.84 34.68 457.1 32.71Q455.48 30.74 455.48 27.72ZM524.61 54.52Q523.8 56.26 522.52 59.62Q521.25 62.98 519.74 67.16Q518.23 71.22 516.61 75.63Q515.1 80.04 513.71 83.86Q512.43 87.58 511.39 90.24Q510.46 92.91 510.23 93.61Q509.07 96.62 505.82 96.62Q504.89 96.62 503.5 96.16Q502.11 95.58 501.53 93.96Q498.98 85.84 497.24 80.5Q495.61 75.16 494.1 70.87Q492.71 66.58 491.09 62.4Q489.58 58.11 487.38 52.08Q486.8 50.46 486.1 49.64Q485.4 48.72 484.59 48.25Q483.78 47.79 482.85 47.67Q481.92 47.44 480.88 47.32Q479.14 47.09 477.4 46.63Q475.78 46.05 475.78 44.66Q475.78 43.26 477.05 42.92Q478.33 42.45 479.95 42.45Q480.42 42.45 483.2 42.45Q485.98 42.45 489.12 42.45Q492.25 42.34 494.92 42.34Q497.58 42.34 498.05 42.34Q499.9 42.34 501.18 42.8Q502.46 43.15 502.46 44.77Q502.46 46.05 501.3 46.86Q500.14 47.67 498.4 47.67Q498.16 47.67 497.58 47.67Q497 47.67 496.42 47.9Q495.96 48.02 495.5 48.37Q495.15 48.6 495.15 49.18Q495.15 49.53 495.5 50.8Q495.84 51.96 496.89 55.56Q498.05 59.04 500.14 65.54Q502.34 72.03 506.05 82.82Q508.02 76.56 509.76 71.34Q511.5 66.12 512.78 62.29Q514.17 58.46 514.98 56.14Q515.8 53.7 515.8 53.01Q515.8 51.85 515.1 51.5Q514.52 51.15 512.55 51.15Q511.62 51.15 511.04 50.46Q510.58 49.64 510.58 48.6Q510.58 47.67 510.92 47.21Q511.39 46.63 512.55 46.4Q513.82 46.05 516.14 46.05Q518.46 45.93 522.29 45.93Q527.74 45.93 530.76 46.05Q533.89 46.05 535.4 46.4Q537.02 46.63 537.37 47.09Q537.84 47.56 537.84 48.37Q537.84 50.46 535.4 50.8Q532.96 51.15 529.83 51.5Q527.51 51.73 526.35 52.31Q525.31 52.89 524.61 54.52ZM559.99 48.48L559.99 88.27L566.6 88.27Q569.16 88.27 570.66 88.85Q572.17 89.43 572.17 91.75Q572.17 93.26 571.13 94.19Q570.08 95 568.69 95L547.93 95Q546.54 95 545.03 95Q543.64 94.88 542.48 94.65Q541.43 94.3 540.62 93.72Q539.92 93.03 539.92 91.87Q539.92 90.82 540.39 90.24Q540.85 89.66 541.78 89.43Q542.71 89.08 543.87 88.97Q545.14 88.74 546.77 88.5Q549.32 88.16 550.25 87.81Q551.18 87.34 551.41 86.07Q551.76 82.36 551.76 78.06Q551.87 73.66 551.87 70.29Q551.87 65.88 551.76 61.82Q551.64 57.76 551.41 53.36Q551.29 51.96 550.94 51.15Q550.6 50.22 549.67 50.22Q549.2 50.22 547.81 50.34Q546.54 50.46 545.03 50.57Q543.64 50.57 542.36 50.69Q541.08 50.8 540.62 50.8Q539.69 50.8 538.53 50.22Q537.37 49.64 537.37 48.95Q537.37 47.56 537.95 46.86Q538.53 46.16 539.58 45.82Q540.74 45.47 542.24 45.35Q543.87 45.24 545.84 45Q547.35 44.89 549.09 44.77Q550.83 44.66 552.45 44.54Q554.19 44.42 555.58 44.42Q556.98 44.42 557.9 44.42Q559.3 44.42 559.64 45.58Q559.99 46.63 559.99 48.48ZM548.28 27.72Q548.28 26.91 548.62 25.75Q549.09 24.47 549.78 23.43Q550.6 22.38 551.87 21.69Q553.15 20.88 554.89 20.88Q557.21 20.88 558.95 22.62Q560.69 24.24 560.69 27.26Q560.69 31.43 558.37 33.06Q556.16 34.68 554.08 34.68Q551.64 34.68 549.9 32.71Q548.28 30.74 548.28 27.72ZM592.01 21.69Q592.01 19.72 593.52 18.56Q595.02 17.28 597.69 17.28Q598.74 17.28 600.13 18.56Q601.52 19.72 602.91 21.57Q604.42 23.31 605.7 25.52Q607.09 27.6 608.13 29.58Q609.29 31.43 609.87 32.82Q610.57 34.22 610.57 34.45Q610.57 35.61 609.52 36.07Q608.6 36.54 607.67 36.54Q606.39 36.54 603.72 34.68Q601.17 32.82 598.5 30.39Q595.95 27.95 593.98 25.52Q592.01 22.96 592.01 21.69ZM583.89 60.32L613.24 59.85Q615.21 59.85 615.21 58.92Q615.21 57.18 614.28 55.1Q613.35 52.89 611.5 51.15Q609.76 49.3 606.97 48.14Q604.19 46.86 600.48 46.86Q596.88 46.86 593.98 48.14Q591.08 49.3 588.99 51.27Q586.9 53.12 585.63 55.56Q584.35 57.88 583.89 60.32ZM583.42 67.28Q583.31 67.86 583.19 68.55Q583.19 69.13 583.19 69.71Q583.19 73.19 584.35 76.67Q585.51 80.15 587.72 82.94Q590.04 85.72 593.28 87.46Q596.65 89.08 600.94 89.08Q605.46 89.08 608.6 87.69Q611.73 86.3 613.58 84.21Q615.56 82.01 616.37 79.57Q617.3 77.02 617.3 74.93Q617.3 74 617.99 72.61Q618.8 71.22 621.24 71.22Q622.63 71.22 623.68 72.26Q624.72 73.19 624.72 74.93Q624.72 78.99 623.44 82.94Q622.28 86.76 619.38 89.78Q616.48 92.8 611.5 94.65Q606.51 96.51 599.08 96.51Q593.05 96.51 588.41 94.54Q583.89 92.45 580.76 88.74Q577.62 85.02 576 80.04Q574.49 74.93 574.49 68.78Q574.49 62.06 576.35 56.6Q578.2 51.15 581.68 47.44Q585.16 43.73 590.04 41.76Q594.91 39.67 600.82 39.67Q607.2 39.67 611.61 41.99Q616.02 44.19 618.69 47.44Q621.36 50.57 622.52 54.05Q623.68 57.42 623.68 59.74Q623.68 62.4 622.4 64.72Q621.12 67.04 618.8 67.04Q615.21 67.04 610.22 67.16Q605.35 67.16 599.78 67.16Q598.62 67.16 596.42 67.16Q594.21 67.16 591.78 67.28Q589.34 67.28 587.02 67.28Q584.82 67.28 583.42 67.28ZM675.99 56.02Q675.99 58 675.53 59.85Q675.18 61.71 674.25 63.22Q673.32 64.61 671.82 65.54Q670.31 66.46 667.99 66.46Q666.02 66.46 664.28 65.42Q662.65 64.26 662.65 61.94Q662.65 60.2 663.35 59.5Q664.16 58.69 665.09 58.34Q666.13 57.88 666.83 57.42Q667.64 56.95 667.64 55.68Q667.64 53.47 666.13 52.66Q664.62 51.73 662.3 51.73Q660.22 51.73 657.78 52.66Q655.34 53.59 653.26 55.79Q651.17 58 649.78 61.59Q648.38 65.07 648.38 70.29L648.38 87.92L654.65 87.92Q660.68 87.92 663.12 88.97Q665.55 89.9 665.55 91.87Q665.55 95 662.07 95Q660.33 95 658.24 95Q656.16 94.88 653.95 94.88Q651.86 94.77 649.78 94.77Q647.69 94.65 646.06 94.65Q644.32 94.65 643.05 94.77Q641.77 94.77 640.5 94.88Q639.34 94.88 638.06 95Q636.9 95 635.28 95Q633.42 95 632.49 94.07Q631.56 93.03 631.56 91.75Q631.56 90.48 632.38 89.32Q633.3 88.16 635.28 87.92Q638.06 87.58 638.87 86.65Q639.8 85.6 639.92 83.98Q640.03 82.47 640.03 80.15Q640.15 77.72 640.26 73.89Q640.38 69.94 640.38 64.26Q640.5 58.58 640.5 50.22Q640.5 48.6 638.76 48.6L633.07 48.6Q630.17 48.6 628.66 47.79Q627.27 46.86 627.27 45.93Q627.27 44.89 629.01 44.31Q630.87 43.61 633.42 43.26Q635.97 42.92 638.87 42.8Q641.77 42.68 643.86 42.68Q646.88 42.68 647.92 43.38Q648.96 44.08 648.96 47.09L648.96 52.78Q651.75 48.72 655.34 46.74Q658.94 44.66 663 44.66Q665.9 44.66 668.22 45.7Q670.66 46.63 672.4 48.25Q674.14 49.76 675.06 51.85Q675.99 53.82 675.99 56.02ZM690.61 60.32L719.96 59.85Q721.93 59.85 721.93 58.92Q721.93 57.18 721 55.1Q720.07 52.89 718.22 51.15Q716.48 49.3 713.69 48.14Q710.91 46.86 707.2 46.86Q703.6 46.86 700.7 48.14Q697.8 49.3 695.71 51.27Q693.62 53.12 692.35 55.56Q691.07 57.88 690.61 60.32ZM690.14 67.28Q690.03 67.86 689.91 68.55Q689.91 69.13 689.91 69.71Q689.91 73.19 691.07 76.67Q692.23 80.15 694.44 82.94Q696.76 85.72 700 87.46Q703.37 89.08 707.66 89.08Q712.18 89.08 715.32 87.69Q718.45 86.3 720.3 84.21Q722.28 82.01 723.09 79.57Q724.02 77.02 724.02 74.93Q724.02 74 724.71 72.61Q725.52 71.22 727.96 71.22Q729.35 71.22 730.4 72.26Q731.44 73.19 731.44 74.93Q731.44 78.99 730.16 82.94Q729 86.76 726.1 89.78Q723.2 92.8 718.22 94.65Q713.23 96.51 705.8 96.51Q699.77 96.51 695.13 94.54Q690.61 92.45 687.48 88.74Q684.34 85.02 682.72 80.04Q681.21 74.93 681.21 68.78Q681.21 62.06 683.07 56.6Q684.92 51.15 688.4 47.44Q691.88 43.73 696.76 41.76Q701.63 39.67 707.54 39.67Q713.92 39.67 718.33 41.99Q722.74 44.19 725.41 47.44Q728.08 50.57 729.24 54.05Q730.4 57.42 730.4 59.74Q730.4 62.4 729.12 64.72Q727.84 67.04 725.52 67.04Q721.93 67.04 716.94 67.16Q712.07 67.16 706.5 67.16Q705.34 67.16 703.14 67.16Q700.93 67.16 698.5 67.28Q696.06 67.28 693.74 67.28Q691.54 67.28 690.14 67.28Z" />
</svg>