<svg xmlns="http://www.w3.org/2000/svg" viewBox="0 0 775 81" width="500" height="52">
	<style>
		tspan { white-space:pre }
	</style>
	<path id="Cécilie Rivière " fill="#ffffff" d="M24.97 41.26C24.97 13.73 29.52 2.3 40.96 2.3C53.94 2.3 58.83 20.17 62.16 31.71L63.6 31.71L63.6 0.19L62.16 0.19C62.16 0.19 61.05 4.08 57.05 4.08C51.06 4.08 48.95 0.19 38.4 0.19C11.87 0.19 0.33 21.95 0.33 40.37C0.33 64.24 12.43 81.11 38.96 81.11C52.5 81.11 64.82 71.01 65.93 52.69L63.6 52.69C63.6 62.46 55.61 78.56 40.96 78.56C29.19 78.56 24.97 64.68 24.97 41.26ZM106.33 78.45C96.79 78.45 94.57 70.23 94.57 57.91L101.89 57.91C114.77 57.91 126.31 54.36 126.31 42.7C126.31 30.05 113.66 25.83 100.9 25.83C83.25 25.83 72.04 36.16 72.04 53.47C72.04 71.79 83.58 81.11 103 81.11C116.21 81.11 124.43 73.67 126.54 61.8L124.54 61.46L124.32 62.46C122.32 72.23 115.1 78.45 106.33 78.45ZM94.46 47.92C94.46 30.72 96.79 27.83 100.9 27.83C103.89 27.83 106.11 30.83 106.11 42.59C106.11 50.7 104.23 55.91 97.23 55.91L94.46 55.91ZM115.99 10.18L82.91 19.28L83.47 21.17L116.55 12.18ZM166.16 78C157.06 78 156.17 68.68 156.17 52.8C156.17 42.59 156.28 28.94 166.72 28.94C173.6 28.94 178.04 32.6 179.93 38.04C180.04 38.49 180.15 38.82 180.15 39.26C180.15 39.82 179.82 40.37 179.15 40.37C178.37 40.37 178.15 39.71 177.93 38.93C177.04 36.27 175.16 34.49 171.82 34.49C167.38 34.49 164.39 37.93 164.39 42.48C164.39 47.26 168.16 50.92 173.16 50.92C178.93 50.92 182.59 46.7 182.59 40.93C182.59 34.16 176.71 25.83 163.06 25.83C145.41 25.83 133.75 35.82 133.75 53.47C133.75 71.23 145.07 81.11 162.83 81.11C174.04 81.11 182.15 73.01 183.48 61.8L181.48 61.8L181.26 62.91C179.71 70.9 174.38 78 166.16 78ZM194.47 29.72L194.47 77.22L187.59 77.22L187.59 79L222.33 79L222.33 77.22L215.45 77.22L215.45 25.83C208.01 27.39 200.91 27.94 193.25 27.94L186.59 27.94L186.59 29.72ZM194.47 10.74C194.47 16.51 199.13 21.17 204.9 21.17C210.9 21.17 215.45 16.51 215.45 10.74C215.45 4.74 210.9 0.19 204.9 0.19C199.13 0.19 194.47 4.74 194.47 10.74ZM232.88 77.22L225.99 77.22L225.99 79L260.96 79L260.96 77.22L253.85 77.22L253.85 0.19C246.42 1.75 239.31 2.3 231.65 2.3L224.99 2.3L224.99 4.08L232.88 4.08ZM271.5 29.72L271.5 77.22L264.62 77.22L264.62 79L299.36 79L299.36 77.22L292.48 77.22L292.48 25.83C285.04 27.39 277.94 27.94 270.28 27.94L263.62 27.94L263.62 29.72ZM271.5 10.74C271.5 16.51 276.16 21.17 281.94 21.17C287.93 21.17 292.48 16.51 292.48 10.74C292.48 4.74 287.93 0.19 281.94 0.19C276.16 0.19 271.5 4.74 271.5 10.74ZM338.1 78.45C328.56 78.45 326.34 70.23 326.34 57.91L333.66 57.91C346.54 57.91 358.08 54.36 358.08 42.7C358.08 30.05 345.43 25.83 332.66 25.83C315.01 25.83 303.8 36.16 303.8 53.47C303.8 71.79 315.35 81.11 334.77 81.11C347.98 81.11 356.2 73.67 358.31 61.8L356.31 61.46L356.08 62.46C354.09 72.23 346.87 78.45 338.1 78.45ZM326.23 47.92C326.23 30.72 328.56 27.83 332.66 27.83C335.66 27.83 337.88 30.83 337.88 42.59C337.88 50.7 335.99 55.91 329 55.91L326.23 55.91ZM439.56 41.59C451.88 40.04 461.42 34.93 461.42 22.61C461.42 6.3 448.33 2.3 429.01 2.3L391.05 2.3L391.05 4.08L398.15 4.08L398.15 77.22L391.05 77.22L391.05 79L427.79 79L427.79 77.22L420.8 77.22L420.8 43.59L426.13 43.59C428.57 43.59 430.12 43.92 431.45 44.37C433.23 44.92 434.78 46.03 435.67 47.59C437.34 50.25 437.78 52.69 437.78 60.02C437.78 69.01 438.67 71.9 440.89 75C443.77 78.89 448.1 81.11 454.88 81.11C467.2 81.11 468.86 74.23 469.97 65.13L467.97 64.9C467.31 71.01 465.64 75.67 463.87 75.67C462.64 75.67 461.42 74.67 461.42 69.68L461.42 67.9C461.42 55.69 460.54 50.7 456.54 47.14C451.88 43.15 445.66 42.04 439.56 42.04ZM420.8 4.08L424.46 4.08C432.23 4.08 437.89 7.41 437.89 23.17C437.89 32.71 437.89 41.7 425.9 41.7L420.8 41.7ZM479.41 29.72L479.41 77.22L472.52 77.22L472.52 79L507.27 79L507.27 77.22L500.38 77.22L500.38 25.83C492.95 27.39 485.84 27.94 478.19 27.94L471.52 27.94L471.52 29.72ZM479.41 10.74C479.41 16.51 484.07 21.17 489.84 21.17C495.83 21.17 500.38 16.51 500.38 10.74C500.38 4.74 495.83 0.19 489.84 0.19C484.07 0.19 479.41 4.74 479.41 10.74ZM538.57 81.11C553.66 81.11 562.88 62.02 562.88 45.59C562.88 32.05 556.55 25.83 549.45 25.83C543.67 25.83 539.46 29.49 539.46 35.27C539.46 40.26 543.12 44.04 547.89 44.04C552.44 44.04 555.88 41.04 555.88 36.6C555.88 33.27 554.11 31.16 551.44 30.27C550.67 30.05 550 29.83 550 29.05C550 28.38 550.56 28.05 551.11 28.05C551.56 28.05 551.89 28.16 552.33 28.27C557.44 29.72 560.77 36.38 560.77 44.81C560.77 56.8 555.22 72.01 547.56 72.01C539.68 72.01 534.35 57.91 534.35 30.72L534.35 25.83C526.91 27.39 519.25 27.94 511.6 27.94L504.94 27.94L504.94 29.72L512.82 29.72L512.82 35.82C512.82 59.69 519.48 81.11 538.57 81.11ZM574.31 29.72L574.31 77.22L567.43 77.22L567.43 79L602.17 79L602.17 77.22L595.29 77.22L595.29 25.83C587.85 27.39 580.75 27.94 573.09 27.94L566.43 27.94L566.43 29.72ZM574.31 10.74C574.31 16.51 578.97 21.17 584.75 21.17C590.74 21.17 595.29 16.51 595.29 10.74C595.29 4.74 590.74 0.19 584.75 0.19C578.97 0.19 574.31 4.74 574.31 10.74ZM640.91 78.45C631.36 78.45 629.14 70.23 629.14 57.91L636.47 57.91C649.35 57.91 660.89 54.36 660.89 42.7C660.89 30.05 648.24 25.83 635.47 25.83C617.82 25.83 606.61 36.16 606.61 53.47C606.61 71.79 618.16 81.11 637.58 81.11C650.79 81.11 659 73.67 661.11 61.8L659.11 61.46L658.89 62.46C656.89 72.23 649.68 78.45 640.91 78.45ZM629.03 47.92C629.03 30.72 631.36 27.83 635.47 27.83C638.47 27.83 640.69 30.83 640.69 42.59C640.69 50.7 638.8 55.91 631.81 55.91L629.03 55.91ZM618.82 12.18L651.9 21.17L652.45 19.28L619.38 10.18ZM693.53 34.82L693.53 25.83C686.09 27.39 678.98 27.94 671.33 27.94L664.67 27.94L664.67 29.72L672.55 29.72L672.55 77.22L665.66 77.22L665.66 79L701.41 79L701.41 77.22L693.08 77.22L693.08 55.14C693.08 37.6 697.41 27.83 706.73 27.83C710.84 27.83 713.28 30.05 714.28 31.38C714.73 32.05 714.95 32.49 714.95 33.05C714.95 33.71 714.5 34.05 713.95 34.05C713.17 34.05 712.84 33.16 712.17 32.38C711.51 31.6 709.84 30.16 707.29 30.16C702.96 30.16 699.96 33.6 699.96 38.04C699.96 43.04 703.85 46.37 708.62 46.37C714.62 46.37 718.06 41.7 718.06 36.38C718.06 30.6 713.28 25.83 706.62 25.83C700.63 25.83 696.3 29.72 694.08 34.82ZM754.13 78.45C744.58 78.45 742.37 70.23 742.37 57.91L749.69 57.91C762.57 57.91 774.11 54.36 774.11 42.7C774.11 30.05 761.46 25.83 748.69 25.83C731.04 25.83 719.83 36.16 719.83 53.47C719.83 71.79 731.38 81.11 750.8 81.11C764.01 81.11 772.22 73.67 774.33 61.8L772.33 61.46L772.11 62.46C770.12 72.23 762.9 78.45 754.13 78.45ZM742.25 47.92C742.25 30.72 744.58 27.83 748.69 27.83C751.69 27.83 753.91 30.83 753.91 42.59C753.91 50.7 752.02 55.91 745.03 55.91L742.25 55.91Z" />
</svg>