<svg xmlns="http://www.w3.org/2000/svg" viewBox="0 0 37 117" width="37" height="117">
	<style>
		tspan { white-space:pre }
	</style>
	<path id="} " fill="#ffffff" d="M-1.2 5.65C-1.2 8.2 0.9 10.3 3.6 10.3L13.35 10.3C16.2 10.3 18.3 13 18.3 15.7L18.3 50.95C18.3 53.8 18.15 56.8 19.65 59.65C18.15 62.35 18.3 65.65 18.3 68.5L18.3 103.75C18.3 106.6 16.2 109.15 13.35 109.15L3.6 109.15C0.9 109.15 -1.2 111.25 -1.2 113.95C-1.2 116.35 0.9 118.6 3.6 118.6L13.35 118.6C21.3 118.6 27.75 111.85 27.75 103.75L27.75 67.3C27.6 65.35 27.6 64.45 29.7 64.45L30.15 64.45C33 64.75 36.6 64.45 36.6 59.8C36.6 57.55 34.8 54.85 32.1 54.85L30.6 54.85C27.75 54.85 27.75 54.85 27.75 50.5L27.75 15.7C27.75 7.6 21.3 0.85 13.35 0.85L3.6 0.85C0.9 0.85 -1.2 2.95 -1.2 5.65Z" />
</svg>