<svg xmlns="http://www.w3.org/2000/svg" viewBox="0 0 945 119" width="945" height="119">
	<style>
		tspan { white-space:pre }
	</style>
	<path id="my_experiences { " fill="#ffffff" d="M57.55 39.1C50.35 39.1 44.2 42.7 40.15 48.25C36.55 42.55 30.7 39.1 23.5 39.1C18.4 39.1 13.75 40.9 10 44.05C9.85 41.65 7.75 39.85 5.35 39.85C2.65 39.85 0.7 41.95 0.7 44.65L0.7 87.1C0.7 89.8 2.65 91.9 5.35 91.9C8.05 91.9 10 89.8 10 87.1L10 68.35C10 68.35 10 68.05 10 67.6C9.7 56.65 13.75 48.55 23.5 48.55C31 48.55 34.75 55.3 34.75 62.2L34.75 87.1C34.75 89.8 36.85 91.9 39.55 91.9C41.95 91.9 44.2 89.8 44.2 87.1L44.2 67.9C44.2 59.5 47.8 48.55 57.55 48.55C65.05 48.55 68.8 55.3 68.8 62.2L68.8 87.1C68.8 89.8 70.9 91.9 73.6 91.9C75.85 91.9 78.25 89.8 78.25 87.1L78.25 62.2C78.25 50.35 70.75 39.1 57.55 39.1ZM136.75 39.7C135.1 39.7 133 40.9 132.25 43L132.25 42.85C128.2 53.8 123.85 64.15 119.5 75.1C114.4 62.65 111.1 54.7 106.15 42.7C105.4 41.2 103.6 39.7 101.8 39.7C99.1 39.7 97 41.8 97 44.5C97 45.1 111.25 79.6 114.85 87.85C114.55 88.75 113.5 91.3 112 94.9C109.15 102.4 104.95 111.25 104.95 114.1C104.95 116.35 107.35 118.75 109.75 118.75C111.7 118.75 113.5 117.4 114.1 115.75L114.1 115.9C116.35 110.5 141.55 45.7 141.55 44.5C141.55 41.8 139.45 39.7 136.75 39.7ZM150.7 91L150.7 98.5L209.2 98.5L209.2 91ZM241.75 38.95C227.05 38.95 216.55 52 216.55 65.8C216.55 79.75 227.05 92.8 241.75 92.8C250.3 92.8 259 89.05 263.35 81.25C263.65 80.65 264.1 79.9 264.1 78.85C264.1 76.3 262 74.2 259.3 74.2C257.8 74.2 256.45 75.1 255.4 76.45C252.1 81.1 247.6 83.35 241.75 83.35C234.25 83.35 228.55 77.8 226.75 70.6L262.15 70.6C264.7 70.6 266.95 68.5 266.95 65.8C266.95 52 256.45 38.95 241.75 38.95ZM226.75 61.15C228.7 54.25 234.4 48.4 241.75 48.4C249.25 48.4 254.95 54.25 256.75 61.15ZM313.6 39.7C312.1 39.7 310.3 40.6 309.7 42.1L309.85 41.8L299.05 57.55L288.4 41.8C287.35 40.45 286 39.7 284.5 39.7C281.8 39.7 279.4 41.95 279.4 44.65C279.4 45.4 279.85 46 280.15 46.6C284.2 52.6 289.3 59.65 293.5 65.65L280 85.15C279.85 85.45 279.4 86.35 279.4 87.25C279.4 89.95 281.8 91.9 284.5 91.9C286.15 91.9 287.35 91.15 288.4 89.95L299.05 73.9L309.85 89.8L309.7 89.5C310.3 91 312.1 91.9 313.6 91.9C316.3 91.9 318.4 89.8 318.4 87.1C318.4 86.2 318.25 85.45 318.1 85.15L304.6 65.65L317.95 46.6C318.1 46 318.4 45.25 318.4 44.5C318.4 41.8 316.3 39.7 313.6 39.7ZM361.75 38.95C355.75 38.95 349.45 41.8 345.1 45.55L345.1 44.5C345.1 42.1 343 39.7 340.3 39.7C337.75 39.7 335.65 42.1 335.65 44.5L335.65 113.65C335.65 116.35 337.75 118.3 340.3 118.3C343 118.3 345.1 116.35 345.1 113.65L345.1 86.2C349.6 90.1 355.45 92.8 361.75 92.8C376.45 92.8 386.95 79.75 386.95 65.8C386.95 52 376.45 38.95 361.75 38.95ZM361.75 83.35C352.45 83.35 346 74.95 346 65.8C346 56.8 352.45 48.4 361.75 48.4C370.9 48.4 377.5 56.8 377.5 65.8C377.5 74.95 370.9 83.35 361.75 83.35ZM429.4 38.95C414.7 38.95 404.2 52 404.2 65.8C404.2 79.75 414.7 92.8 429.4 92.8C437.95 92.8 446.65 89.05 451 81.25C451.3 80.65 451.75 79.9 451.75 78.85C451.75 76.3 449.65 74.2 446.95 74.2C445.45 74.2 444.1 75.1 443.05 76.45C439.75 81.1 435.25 83.35 429.4 83.35C421.9 83.35 416.2 77.8 414.4 70.6L449.8 70.6C452.35 70.6 454.6 68.5 454.6 65.8C454.6 52 444.1 38.95 429.4 38.95ZM414.4 61.15C416.35 54.25 422.05 48.4 429.4 48.4C436.9 48.4 442.6 54.25 444.4 61.15ZM495.1 39.85C490.15 39.85 485.35 42.25 481.6 45.55L481.6 44.65C481.6 41.95 479.5 39.85 476.8 39.85C474.25 39.85 472.15 41.95 472.15 44.65L472.15 86.95C472.15 89.65 474.25 91.75 476.8 91.75C479.5 91.75 481.6 89.65 481.6 86.95L481.6 68.35C481.6 59.35 487 51.25 495.7 49.3C498.25 49 499.9 47.35 499.9 44.5C499.9 41.65 497.2 39.85 495.1 39.85ZM526.45 29.35C526.45 26.05 523.6 23.35 520.6 23.35C517.15 23.35 514.6 26.05 514.6 29.35C514.6 32.5 517.15 35.2 520.6 35.2C523.6 35.2 526.45 32.5 526.45 29.35ZM520.6 40.15C517.9 40.15 515.8 42.55 515.8 44.95L515.8 87.1C515.8 89.5 517.9 91.9 520.6 91.9C522.85 91.9 525.25 89.5 525.25 87.1L525.25 44.95C525.25 42.55 522.85 40.15 520.6 40.15ZM566.95 38.95C552.25 38.95 541.75 52 541.75 65.8C541.75 79.75 552.25 92.8 566.95 92.8C575.5 92.8 584.2 89.05 588.55 81.25C588.85 80.65 589.3 79.9 589.3 78.85C589.3 76.3 587.2 74.2 584.5 74.2C583 74.2 581.65 75.1 580.6 76.45C577.3 81.1 572.8 83.35 566.95 83.35C559.45 83.35 553.75 77.8 551.95 70.6L587.35 70.6C589.9 70.6 592.15 68.5 592.15 65.8C592.15 52 581.65 38.95 566.95 38.95ZM551.95 61.15C553.9 54.25 559.6 48.4 566.95 48.4C574.45 48.4 580.15 54.25 581.95 61.15ZM632.8 38.8C627.7 38.8 623.05 40.75 619.45 43.75C619 41.5 617.05 39.7 614.65 39.7C612.1 39.7 610 41.8 610 44.5L610 86.95C610 89.65 612.1 91.75 614.65 91.75C617.35 91.75 619.45 89.65 619.45 86.95L619.45 67.6C619.45 57.4 623.05 48.25 632.8 48.25C640.3 48.25 644.05 55 644.05 62.05L644.05 86.8C644.05 89.5 646.15 91.6 648.7 91.6C651.1 91.6 653.5 89.5 653.5 86.8L653.5 62.05C653.5 50.2 646 38.8 632.8 38.8ZM717.25 78.25C717.25 75.55 715 73.45 712.3 73.45C710.35 73.45 709 74.35 707.95 76.3L707.95 76.15C705.7 80.5 700.3 83.35 695.35 83.35C686.2 83.35 679.75 74.95 679.75 65.8C679.75 56.8 686.2 48.4 695.35 48.4C700.75 48.4 705.7 51.55 708.55 56.35C709.3 57.55 710.95 58 712.15 58C714.85 58 716.95 55.9 716.95 53.2C716.95 51.1 715.3 48.4 713.5 46.9C708.7 41.95 702.4 38.95 695.35 38.95C680.65 38.95 670.3 52 670.3 65.8C670.3 79.75 680.65 92.8 695.35 92.8C704.2 92.8 711.85 88 716.35 80.8C716.95 80.05 717.25 79.3 717.25 78.25ZM759.4 38.95C744.7 38.95 734.2 52 734.2 65.8C734.2 79.75 744.7 92.8 759.4 92.8C767.95 92.8 776.65 89.05 781 81.25C781.3 80.65 781.75 79.9 781.75 78.85C781.75 76.3 779.65 74.2 776.95 74.2C775.45 74.2 774.1 75.1 773.05 76.45C769.75 81.1 765.25 83.35 759.4 83.35C751.9 83.35 746.2 77.8 744.4 70.6L779.8 70.6C782.35 70.6 784.6 68.5 784.6 65.8C784.6 52 774.1 38.95 759.4 38.95ZM744.4 61.15C746.35 54.25 752.05 48.4 759.4 48.4C766.9 48.4 772.6 54.25 774.4 61.15ZM811.75 53.65C811.75 49.45 818.95 48.85 822.85 48.85C826.3 48.85 831.1 49.3 833.05 51.7C834.25 52.9 834.55 54.1 834.7 55.75C834.85 58 836.2 60.25 839.2 60.25C841.45 60.25 844.15 58.45 844.15 55.75C844.15 43.15 832.9 39.4 822.85 39.4C814.3 39.4 802.3 42.25 802.3 53.8C802.3 64.75 812.35 66.4 822.1 68.5C829.15 69.85 835.75 71.2 835.75 75.7C835.75 81.25 828.85 83.5 823.6 83.5C817.15 83.5 811.15 81.85 811.15 74.95C811.15 73.15 810.1 69.85 806.8 69.85C802 69.85 801.7 72.55 801.7 75.85C801.7 88.6 813.1 92.95 823.6 92.95C833.35 92.95 845.2 87.55 845.2 75.7C845.2 63.7 833.8 61.15 823.6 59.05C817.6 57.85 811.75 56.5 811.75 53.65ZM944.8 5.65C944.8 2.95 942.4 0.85 940.15 0.85L930.4 0.85C922.3 0.85 915.85 7.6 915.85 15.7L915.85 50.5C915.85 54.85 915.85 54.85 912.85 54.85L911.65 54.85C908.8 54.85 907 57.55 907 59.8C907 64.45 910.3 64.75 913.3 64.45L913.9 64.45C916 64.45 916 65.35 915.85 67.3L915.85 103.75C915.85 111.85 922.3 118.6 930.4 118.6L940.15 118.6C942.4 118.6 944.8 116.35 944.8 113.95C944.8 111.25 942.4 109.15 940.15 109.15L930.4 109.15C927.4 109.15 925.3 106.6 925.3 103.75L925.3 68.5C925.3 65.65 925.45 62.35 923.95 59.65C925.45 56.8 925.3 53.8 925.3 50.95L925.3 15.7C925.3 13 927.4 10.3 930.4 10.3L940.15 10.3C942.4 10.3 944.8 8.2 944.8 5.65Z" />
</svg>